<svg width="1439" height="321" viewBox="0 0 1439 321" fill="none" xmlns="http://www.w3.org/2000/svg">
<path d="M44.6467 14.0928V236.674H0.00292969V14.0928H44.6467Z" fill="#FAC344"/>
<path d="M77.275 147.705C77.275 129.848 80.7827 114.01 87.7982 100.191C95.0262 86.3732 104.805 75.7437 117.136 68.3031C129.466 60.8624 143.178 57.1421 158.272 57.1421C169.751 57.1421 180.7 59.6932 191.117 64.7953C201.533 69.6849 209.824 76.2752 215.99 84.5661V0.699646H261.271V236.674H215.99V210.525C210.462 219.241 202.703 226.257 192.711 231.572C182.719 236.886 171.133 239.544 157.953 239.544C143.071 239.544 129.466 235.717 117.136 228.064C104.805 220.411 95.0262 209.675 87.7982 195.857C80.7827 181.826 77.275 165.775 77.275 147.705ZM216.308 148.343C216.308 137.501 214.183 128.253 209.931 120.6C205.679 112.734 199.939 106.782 192.711 102.743C185.483 98.4907 177.723 96.3648 169.432 96.3648C161.142 96.3648 153.488 98.3845 146.473 102.424C139.457 106.463 133.717 112.415 129.253 120.281C125.001 127.934 122.875 137.076 122.875 147.705C122.875 158.335 125.001 167.689 129.253 175.767C133.717 183.633 139.457 189.692 146.473 193.943C153.701 198.195 161.354 200.321 169.432 200.321C177.723 200.321 185.483 198.301 192.711 194.262C199.939 190.01 205.679 184.058 209.931 176.405C214.183 168.539 216.308 159.185 216.308 148.343Z" fill="#FAC344"/>
<path d="M469.099 144.516C469.099 150.894 468.674 156.634 467.823 161.736H338.675C339.738 174.491 344.203 184.483 352.068 191.711C359.934 198.939 369.607 202.553 381.087 202.553C397.669 202.553 409.467 195.431 416.483 181.188H464.634C459.532 198.195 449.753 212.226 435.297 223.281C420.841 234.123 403.09 239.544 382.043 239.544C365.036 239.544 349.73 235.823 336.124 228.383C322.731 220.73 312.208 209.994 304.555 196.176C297.114 182.357 293.394 166.413 293.394 148.343C293.394 130.06 297.114 114.01 304.555 100.191C311.995 86.3732 322.412 75.7437 335.805 68.3031C349.198 60.8624 364.611 57.1421 382.043 57.1421C398.838 57.1421 413.826 60.7561 427.006 67.9842C440.399 75.2122 450.71 85.5228 457.938 98.9159C465.378 112.096 469.099 127.297 469.099 144.516ZM422.861 131.761C422.648 120.281 418.503 111.14 410.424 104.337C402.346 97.3215 392.46 93.8138 380.768 93.8138C369.713 93.8138 360.359 97.2152 352.706 104.018C345.265 110.608 340.695 119.856 338.994 131.761H422.861Z" fill="#FAC344"/>
<path d="M490.205 147.705C490.205 129.848 493.713 114.01 500.728 100.191C507.956 86.3732 517.629 75.7437 529.747 68.3031C542.077 60.8624 555.789 57.1421 570.883 57.1421C584.063 57.1421 595.543 59.7995 605.322 65.1142C615.314 70.4289 623.286 77.1255 629.238 85.2039V60.0121H674.201V236.674H629.238V210.844C623.498 219.135 615.526 226.044 605.322 231.572C595.33 236.886 583.744 239.544 570.564 239.544C555.682 239.544 542.077 235.717 529.747 228.064C517.629 220.411 507.956 209.675 500.728 195.857C493.713 181.826 490.205 165.775 490.205 147.705ZM629.238 148.343C629.238 137.501 627.113 128.253 622.861 120.6C618.609 112.734 612.869 106.782 605.641 102.743C598.413 98.4907 590.653 96.3648 582.362 96.3648C574.071 96.3648 566.418 98.3845 559.403 102.424C552.387 106.463 546.647 112.415 542.183 120.281C537.931 127.934 535.805 137.076 535.805 147.705C535.805 158.335 537.931 167.689 542.183 175.767C546.647 183.633 552.387 189.692 559.403 193.943C566.631 198.195 574.284 200.321 582.362 200.321C590.653 200.321 598.413 198.301 605.641 194.262C612.869 190.01 618.609 184.058 622.861 176.405C627.113 168.539 629.238 159.185 629.238 148.343Z" fill="#FAC344"/>
<path d="M821.122 238.906C800.288 238.906 781.155 234.016 763.723 224.237C746.29 214.458 732.472 200.959 722.268 183.739C712.063 166.307 706.961 146.642 706.961 124.746C706.961 103.061 712.063 83.6095 722.268 66.3897C732.472 48.9574 746.29 35.3517 763.723 25.5726C781.155 15.7935 800.288 10.9039 821.122 10.9039C842.168 10.9039 861.301 15.7935 878.521 25.5726C895.953 35.3517 909.665 48.9574 919.657 66.3897C929.861 83.6095 934.963 103.061 934.963 124.746C934.963 146.642 929.861 166.307 919.657 183.739C909.665 200.959 895.953 214.458 878.521 224.237C861.089 234.016 841.956 238.906 821.122 238.906ZM821.122 199.046C834.515 199.046 846.314 196.069 856.518 190.117C866.722 183.952 874.694 175.235 880.434 163.968C886.174 152.701 889.044 139.627 889.044 124.746C889.044 109.864 886.174 96.8963 880.434 85.8417C874.694 74.5744 866.722 65.9646 856.518 60.0121C846.314 54.0596 834.515 51.0833 821.122 51.0833C807.729 51.0833 795.824 54.0596 785.407 60.0121C775.203 65.9646 767.23 74.5744 761.491 85.8417C755.751 96.8963 752.881 109.864 752.881 124.746C752.881 139.627 755.751 152.701 761.491 163.968C767.23 175.235 775.203 183.952 785.407 190.117C795.824 196.069 807.729 199.046 821.122 199.046Z" fill="#FAC344"/>
<path d="M1012.82 87.4361C1018.56 78.0822 1026 70.7478 1035.14 65.4331C1044.5 60.1184 1055.13 57.461 1067.03 57.461V104.337H1055.23C1041.2 104.337 1030.57 107.632 1023.34 114.222C1016.33 120.813 1012.82 132.292 1012.82 148.662V236.674H968.177V60.0121H1012.82V87.4361Z" fill="#FAC344"/>
<path d="M1266.11 60.0121L1156.73 320.221H1109.22L1147.48 232.209L1076.69 60.0121H1126.76L1172.36 183.42L1218.6 60.0121H1266.11Z" fill="#FAC344"/>
<path d="M1387.75 236.674L1351.4 181.826L1319.19 236.674H1271.36L1329.08 148.024L1270.72 60.0121H1321.11L1357.14 114.541L1389.67 60.0121H1437.5L1379.46 148.024L1438.14 236.674H1387.75Z" fill="#FAC344"/>
</svg>
