<svg width="419" height="94" viewBox="0 0 419 94" fill="none" xmlns="http://www.w3.org/2000/svg">
<path d="M13.3536 4.50111V69.4012H0.336426V4.50111H13.3536Z" fill="#FAC344"/>
<path d="M24.727 43.4598C24.727 38.2529 25.7498 33.6349 27.7953 29.6057C29.9029 25.5766 32.7543 22.4773 36.3495 20.3077C39.9447 18.1382 43.9429 17.0534 48.3439 17.0534C51.6912 17.0534 54.8835 17.7973 57.9209 19.2849C60.9582 20.7106 63.3757 22.6322 65.1733 25.0497V0.595947H78.3765V69.4012H65.1733V61.7768C63.5617 64.3183 61.2992 66.3639 58.3858 67.9135C55.4724 69.4632 52.0941 70.238 48.2509 70.238C43.9119 70.238 39.9447 69.1223 36.3495 66.8907C32.7543 64.6592 29.9029 61.5289 27.7953 57.4998C25.7498 53.4086 24.727 48.7286 24.727 43.4598ZM65.2663 43.6457C65.2663 40.4844 64.6464 37.788 63.4067 35.5565C62.167 33.2629 60.4933 31.5273 58.3858 30.3496C56.2782 29.1098 54.0157 28.49 51.5982 28.49C49.1807 28.49 46.9492 29.0788 44.9037 30.2566C42.8581 31.4343 41.1845 33.17 39.8827 35.4635C38.643 37.695 38.0231 40.3604 38.0231 43.4598C38.0231 46.5591 38.643 49.2865 39.8827 51.642C41.1845 53.9355 42.8581 55.7021 44.9037 56.9419C47.0112 58.1816 49.2427 58.8015 51.5982 58.8015C54.0157 58.8015 56.2782 58.2126 58.3858 57.0349C60.4933 55.7951 62.167 54.0595 63.4067 51.828C64.6464 49.5345 65.2663 46.807 65.2663 43.6457Z" fill="#FAC344"/>
<path d="M140.834 42.53C140.834 44.3896 140.71 46.0632 140.462 47.5509H102.806C103.115 51.2701 104.417 54.1835 106.711 56.291C109.004 58.3986 111.825 59.4523 115.172 59.4523C120.007 59.4523 123.447 57.3758 125.493 53.2227H139.533C138.045 58.1816 135.194 62.2727 130.979 65.496C126.763 68.6574 121.588 70.238 115.451 70.238C110.492 70.238 106.029 69.1533 102.062 66.9837C98.1566 64.7522 95.0882 61.6219 92.8567 57.5927C90.6872 53.5636 89.6024 48.9146 89.6024 43.6457C89.6024 38.3149 90.6872 33.6349 92.8567 29.6057C95.0262 25.5766 98.0636 22.4773 101.969 20.3077C105.874 18.1382 110.368 17.0534 115.451 17.0534C120.348 17.0534 124.718 18.1072 128.561 20.2147C132.466 22.3223 135.473 25.3286 137.58 29.2338C139.75 33.077 140.834 37.509 140.834 42.53ZM127.352 38.8108C127.29 35.4635 126.082 32.798 123.726 30.8145C121.371 28.7689 118.488 27.7461 115.079 27.7461C111.856 27.7461 109.128 28.7379 106.897 30.7215C104.727 32.6431 103.394 35.3395 102.899 38.8108H127.352Z" fill="#FAC344"/>
<path d="M148.848 43.4598C148.848 38.2529 149.871 33.6349 151.916 29.6057C154.024 25.5766 156.844 22.4773 160.378 20.3077C163.973 18.1382 167.971 17.0534 172.372 17.0534C176.215 17.0534 179.563 17.8283 182.414 19.3779C185.327 20.9276 187.652 22.8802 189.387 25.2357V17.8902H202.498V69.4012H189.387V61.8698C187.714 64.2873 185.389 66.3019 182.414 67.9135C179.501 69.4632 176.122 70.238 172.279 70.238C167.94 70.238 163.973 69.1223 160.378 66.8907C156.844 64.6592 154.024 61.5289 151.916 57.4998C149.871 53.4086 148.848 48.7286 148.848 43.4598ZM189.387 43.6457C189.387 40.4844 188.768 37.788 187.528 35.5565C186.288 33.2629 184.614 31.5273 182.507 30.3496C180.399 29.1098 178.137 28.49 175.719 28.49C173.302 28.49 171.07 29.0788 169.025 30.2566C166.979 31.4343 165.306 33.17 164.004 35.4635C162.764 37.695 162.144 40.3604 162.144 43.4598C162.144 46.5591 162.764 49.2865 164.004 51.642C165.306 53.9355 166.979 55.7021 169.025 56.9419C171.132 58.1816 173.364 58.8015 175.719 58.8015C178.137 58.8015 180.399 58.2126 182.507 57.0349C184.614 55.7951 186.288 54.0595 187.528 51.828C188.768 49.5345 189.387 46.807 189.387 43.6457Z" fill="#FAC344"/>
<path d="M239.944 70.238C234.985 70.238 230.522 69.1533 226.555 66.9837C222.588 64.7522 219.457 61.6219 217.164 57.5927C214.932 53.5636 213.817 48.9146 213.817 43.6457C213.817 38.3768 214.963 33.7278 217.257 29.6987C219.612 25.6696 222.805 22.5702 226.834 20.4007C230.863 18.1692 235.357 17.0534 240.316 17.0534C245.275 17.0534 249.769 18.1692 253.798 20.4007C257.827 22.5702 260.988 25.6696 263.282 29.6987C265.637 33.7278 266.815 38.3768 266.815 43.6457C266.815 48.9146 265.606 53.5636 263.189 57.5927C260.833 61.6219 257.61 64.7522 253.519 66.9837C249.49 69.1533 244.965 70.238 239.944 70.238ZM239.944 58.8945C242.299 58.8945 244.5 58.3366 246.546 57.2208C248.653 56.0431 250.327 54.3074 251.566 52.0139C252.806 49.7204 253.426 46.931 253.426 43.6457C253.426 38.7488 252.124 34.9986 249.521 32.3951C246.979 29.7297 243.849 28.397 240.13 28.397C236.411 28.397 233.28 29.7297 230.739 32.3951C228.259 34.9986 227.02 38.7488 227.02 43.6457C227.02 48.5427 228.228 52.3239 230.646 54.9893C233.125 57.5927 236.225 58.8945 239.944 58.8945Z" fill="#FAC344"/>
<path d="M291.241 25.8865C292.914 23.1591 295.084 21.0206 297.749 19.4709C300.477 17.9212 303.576 17.1464 307.047 17.1464V30.8145H303.607C299.516 30.8145 296.417 31.7753 294.309 33.6969C292.263 35.6184 291.241 38.9657 291.241 43.7387V69.4012H278.223V17.8902H291.241V25.8865Z" fill="#FAC344"/>
<path d="M366.954 17.8902L335.062 93.762H321.208L332.365 68.0995L311.724 17.8902H326.322L339.618 53.8735L353.1 17.8902H366.954Z" fill="#FAC344"/>
<path d="M404.283 69.4012L393.683 53.4086L384.292 69.4012H370.345L387.174 43.5527L370.159 17.8902H384.85L395.356 33.7898L404.84 17.8902H418.787L401.865 43.5527L418.973 69.4012H404.283Z" fill="#FAC344"/>
</svg>
